<svg width="1170" height="586" xmlns="http://www.w3.org/2000/svg" version="1.1">

 <g>
  <title>Layer 1</title>
  <g id="HG">
   <path fill="#feea00" stroke-width="0" class="cls-2" d="m818.6,0l189.88,0l0,353.37l-189.88,0l0,-353.37z" id="rect1"/>
   <path fill="#feea00" stroke-width="0" class="cls-2" d="m0,200.15l589.79,0l0,391.55l-589.79,0l0,-391.55z" id="rect2"/>
  </g>
  <g id="Typo">
   <path stroke-width="0" class="cls-1" d="m766.63,453.04c-5.67,16.06 -11.81,24.08 -24.08,24.08c-16.06,0 -22.67,-13.22 -22.67,-46.75l0,-141.67l16.53,0c8.97,0 11.81,0.47 11.81,3.31c0,0.94 -0.47,2.83 -0.94,4.25l5.67,0c6.61,-15.58 11.81,-24.08 17,-34.95l-3.78,-4.25c-7.08,10.86 -17.47,11.33 -31.64,11.33l-14.64,0c0,-23.61 1.42,-51.95 3.31,-67.53l-8.5,-1.42c-7.56,36.36 -25.03,69.42 -56.2,81.23l0,4.72c8.97,1.42 18.42,3.78 18.42,13.22l0,40.66c-36.75,-58.85 -139.11,-57.67 -139.11,-128.97c0,-32.58 22.2,-52.89 53.84,-52.89c39.2,0 64.23,22.2 78.39,82.17l7.56,0c-0.47,-20.78 -0.47,-36.36 -0.47,-43.92c0,-16.53 0.47,-37.31 1.42,-51c-8.03,3.78 -19.83,5.19 -29.28,5.19c-17.47,0 -28.33,-7.56 -57.61,-7.56s-55.56,11 -73.64,29.01c0,-0.28 0.02,-0.56 0.02,-0.84c0,-16.55 -13.04,-28.59 -37.12,-28.59c-84.78,0 -148.98,111.86 -148.98,183.6c0,1.21 0.02,2.4 0.06,3.59c-16.97,-14.81 -41.47,-24.11 -72.4,-28.16c50.53,-12.63 72.4,-44.22 72.4,-82.6c0,-42.27 -27.21,-76.77 -86.98,-76.77c-26.72,0 -47.62,0.97 -93.29,0.97c-17.98,0 -46.16,-0.49 -56.85,-0.97l0,7.29c22.35,3.89 24.3,14.09 24.3,68.51l0,203.59c0,54.42 -1.94,64.62 -24.3,68.51l0,7.29c10.69,-0.49 38.87,-0.97 56.85,-0.97c37.41,0 64.62,1.46 86.49,1.46c98.15,0 120.99,-55.88 120.99,-103.5c0,-4.12 -0.23,-8.09 -0.65,-11.94c6.78,3.48 14.93,5.4 24.55,5.4c25.58,0 68.22,-15.05 102.83,-73.24l-2.51,-2.51c-25.58,40.13 -53.67,48.66 -75.25,48.66c-29.6,0 -41.64,-22.57 -41.64,-53.17c0,-11.54 1.5,-24.58 5.02,-37.62c57.53,-9.88 97.56,-30.7 121.05,-52.71c-1.94,7.92 -2.96,16.25 -2.96,24.88c0,107.67 150.65,93.98 150.65,180.4c0,34.95 -20.78,60.45 -59.98,60.45c-53.36,0 -73.67,-47.7 -78.86,-95.39l-7.08,0c-4.25,10.39 -4.72,23.61 -4.72,34.95c0,8.97 1.89,30.22 1.89,46.28c0,7.08 -0.47,14.64 -0.94,23.14c6.61,-1.89 12.28,-2.36 19.83,-2.36c20.78,0 38.25,8.5 69.89,8.5c49.03,0 80.74,-21.55 96.85,-52.94c2.15,39.65 19.19,52 46.52,52c25.03,0 38.25,-10.39 46.75,-40.61l-3.78,-2.83l-0.04,-0.01zm-582.38,-292.55c7.77,-2.92 16.03,-4.37 22.84,-4.37c33.04,0 54.42,17.49 54.42,62.2c0,56.85 -18.46,78.23 -61.71,78.23l-15.55,0l0,-136.05l0,-0.01zm34.5,322.15c-11.18,0 -25.75,-0.97 -34.5,-4.37l0,-166.18l17.01,0c56.85,0 87.46,23.81 87.46,81.63c0,64.14 -34.01,88.92 -69.97,88.92zm154.29,-219.36c15.05,-54.18 53.17,-111.36 90.29,-111.36c14.05,0 20.57,7.52 20.57,19.06c0,28.59 -37.62,80.26 -110.86,92.3z" id="path2"/>
  </g>
  <g id="Pfeile">
   <path stroke-width="0" class="cls-1" d="m818.6,157.56l35.67,63.41l-71.33,0l35.66,-63.41z" id="polygon2"/>
   <path stroke-width="0" class="cls-1" d="m818.6,232.94l35.67,63.4l-71.33,0l35.66,-63.4z" id="polygon3"/>
   <path stroke-width="0" class="cls-1" d="m818.6,308.76l35.67,63.4l-71.33,0l35.66,-63.4z" id="polygon4"/>
  </g>
  <g transform="matrix(.4772 0 0 .4772 357.0306 282.5727)" id="Zusatz">
   <path stroke-width="0" class="cls-1" d="m966.31,354.01c4.39,-0.76 4.77,-2.77 4.77,-13.45l0,-39.98c0,-10.69 -0.38,-12.69 -4.77,-13.45l0,-1.43c2.1,0.1 7.63,0.19 11.16,0.19c8.97,0 13.07,-0.19 18.32,-0.19c11.74,0 17.08,6.77 17.08,15.08c0,7.54 -4.29,13.74 -14.22,16.22c12.4,1.62 19.56,7.54 19.56,18.22c0,9.35 -4.48,20.32 -23.76,20.32c-4.29,0 -9.64,-0.29 -16.98,-0.29c-3.53,0 -9.06,0.1 -11.16,0.19l0,-1.43zm20.61,-37.88c8.49,0 12.12,-4.2 12.12,-15.36c0,-8.78 -4.2,-12.21 -10.69,-12.21c-1.34,0 -2.96,0.29 -4.48,0.86l0,26.72l3.05,0l0,-0.01zm-3.05,3.05l0,32.63c1.72,0.67 4.58,0.86 6.77,0.86c7.06,0 13.74,-4.87 13.74,-17.46c0,-11.35 -6.01,-16.03 -17.17,-16.03l-3.34,0z" id="path4"/>
   <path stroke-width="0" class="cls-1" d="m1021.46,344.38c0,-13.64 12.21,-34.92 28.34,-34.92c4.58,0 7.06,2.29 7.06,5.44c0,6.11 -8.97,15.55 -27.86,18.8c-0.67,2.48 -0.95,4.96 -0.95,7.16c0,5.82 2.29,10.11 7.92,10.11c4.1,0 9.45,-1.62 14.31,-9.26l0.48,0.48c-6.58,11.07 -14.69,13.93 -19.56,13.93c-6.77,0 -9.73,-4.96 -9.73,-11.74l-0.01,0zm7.82,-11.83c13.93,-2.29 21.09,-12.12 21.09,-17.56c0,-2.19 -1.24,-3.63 -3.91,-3.63c-7.06,0 -14.31,10.88 -17.17,21.18l-0.01,0.01z" id="path5"/>
   <path stroke-width="0" class="cls-1" d="m1103.13,355.16c-0.09,0.1 -1.34,0.48 -4.2,0.48c-2.2,0 -5.44,-0.19 -8.21,-2.86c-3.05,-2.96 -4.48,-7.63 -8.59,-17.84c-1.15,-2.86 -3.05,-7.25 -5.06,-10.59l-2.96,0l0,16.89c0,11.35 0.29,12.59 3.82,13.26l0,0.95c-1.62,-0.1 -5.72,-0.19 -8.49,-0.19c-2.77,0 -6.87,0.1 -8.59,0.19l0,-0.95c3.53,-0.67 3.82,-1.91 3.82,-13.36l0,-40.93c0,-10.49 -0.29,-12.69 -3.82,-13.45l0,-0.95c1.81,0.19 5.82,0.19 8.78,0.19c3.72,0 7.25,-0.19 9.26,-0.19c13.26,0 19.85,7.92 19.85,19.08c0,8.11 -3.72,14.88 -12.12,17.94c3.15,5.82 12.5,29.77 16.51,31.68l0,0.67l0,-0.02zm-25.47,-33.11c7.92,0 10.78,-4.29 10.78,-16.03c0,-10.88 -3.34,-17.65 -10.3,-17.65c-1.72,0 -2.96,0.29 -4.01,0.86l0,32.82l3.53,0z" id="path6"/>
   <path stroke-width="0" class="cls-1" d="m1157.32,310.03c0,-19.65 -1.62,-21.37 -7.16,-22.9l0,-1.43c2.1,0.1 5.34,0.19 8.87,0.19c3.24,0 5.53,-0.1 7.54,-0.19l0,1.43c-5.15,1.53 -5.25,3.34 -5.25,22.99l0,19.08c0,15.17 -4.39,27 -21.66,27c-10.4,0 -19.18,-2.29 -23.76,-8.11c-3.34,-4.29 -4.77,-9.64 -4.77,-18.8l0,-28.72c0,-10.69 -0.38,-12.69 -4.77,-13.45l0,-1.43c2.1,0.1 7.63,0.19 11.16,0.19c3.53,0 9.07,-0.1 11.16,-0.19l0,1.43c-4.39,0.76 -4.77,2.77 -4.77,13.45l0,28.34c0,17.56 2.48,23.66 16.12,23.66c12.59,0 17.27,-7.63 17.27,-24.9l0,-17.65l0.02,0.01z" id="path7"/>
   <path stroke-width="0" class="cls-1" d="m1194.04,355.44c-2.1,-0.1 -7.63,-0.19 -11.16,-0.19c-3.53,0 -9.06,0.1 -11.16,0.19l0,-1.43c4.39,-0.76 4.77,-2.77 4.77,-13.45l0,-39.98c0,-10.69 -0.38,-12.69 -4.77,-13.45l0,-1.43c2.1,0.1 7.63,0.19 11.16,0.19c11.45,0 25.47,0 32.63,-0.19c-0.09,2.39 -0.19,5.72 -0.19,8.21c0,1.91 0,6.49 0.1,8.49l-1.43,0c-4.58,-12.5 -8.2,-13.07 -18.22,-13.07c-2.19,0 -5.34,0.19 -6.49,0.38l0,27.95l5.34,0c6.11,0 11.07,-0.29 12.69,-8.11l1.43,0c-0.19,2.86 -0.38,6.11 -0.38,8.87c0,3.15 0.19,6.97 0.38,9.26l-1.43,0c-1.81,-6.49 -5.82,-6.77 -12.69,-6.77l-5.34,0l0,19.65c0,10.69 0.38,12.69 4.77,13.45l0,1.43l-0.01,0z" id="path8"/>
   <path stroke-width="0" class="cls-1" d="m1003.52,406.17c-2.86,-12.12 -7.92,-16.6 -15.84,-16.6c-6.39,0 -10.88,4.1 -10.88,10.69c0,17.56 30.72,13.36 30.72,35.87c0,11.93 -6.97,22.14 -22.14,22.14c-6.39,0 -9.92,-1.72 -14.12,-1.72c-1.53,0 -2.67,0.1 -4.01,0.48c0.1,-1.72 0.19,-3.24 0.19,-4.68c0,-3.24 -0.38,-7.54 -0.38,-9.35c0,-2.29 0.1,-4.96 0.95,-7.06l1.43,0c1.05,9.64 5.15,19.27 15.93,19.27c7.92,0 12.12,-5.15 12.12,-12.21c0,-17.46 -30.44,-14.69 -30.44,-36.45c0,-11.26 8.59,-20.04 20.61,-20.04c5.92,0 8.11,1.53 11.64,1.53c1.91,0 4.29,-0.29 5.91,-1.05c-0.19,2.77 -0.29,6.97 -0.29,10.3c0,1.53 0,4.68 0.1,8.87l-1.53,0l0.03,0.01z" id="path9"/>
   <path stroke-width="0" class="cls-1" d="m1040.64,449.01c-1.72,5.82 -5.53,8.87 -10.88,8.87c-7.92,0 -13.36,-4.01 -13.36,-13.26l0,-26.33l-4.67,0l0,-1.43c8.2,-4.77 12.78,-12.4 14.79,-20.23l2.38,0.48c-0.38,3.05 -0.67,9.45 -0.67,14.88l2.86,0c3.34,0 6.2,0 8.2,-2.2l0.95,1.15c-1.34,2 -2.67,4.01 -4.39,7.35l-7.63,0l0,24.33c0,7.16 1.62,10.02 5.72,10.02c2.86,0 4.2,-1.91 5.53,-4.48l1.14,0.86l0.03,-0.01z" id="path10"/>
   <path stroke-width="0" class="cls-1" d="m1094.73,412.09c0,-19.65 -1.62,-21.37 -7.16,-22.9l0,-1.43c2.1,0.1 5.34,0.19 8.87,0.19c3.24,0 5.53,-0.1 7.54,-0.19l0,1.43c-5.15,1.53 -5.25,3.34 -5.25,22.99l0,19.08c0,15.17 -4.39,27 -21.66,27c-10.4,0 -19.18,-2.29 -23.76,-8.11c-3.34,-4.29 -4.77,-9.64 -4.77,-18.8l0,-28.72c0,-10.69 -0.38,-12.69 -4.77,-13.45l0,-1.43c2.1,0.1 7.63,0.19 11.16,0.19c3.53,0 9.06,-0.1 11.16,-0.19l0,1.43c-4.39,0.76 -4.77,2.77 -4.77,13.45l0,28.34c0,17.56 2.48,23.66 16.12,23.66c12.59,0 17.27,-7.63 17.27,-24.9l0,-17.65l0.02,0.01z" id="path11"/>
   <path stroke-width="0" class="cls-1" d="m1111.04,456.07c4.39,-0.76 4.77,-2.77 4.77,-13.45l0,-39.98c0,-10.69 -0.38,-12.69 -4.77,-13.45l0,-1.43c2.1,0.1 7.63,0.19 11.16,0.19c4.87,0 9.16,-0.19 14.22,-0.19c34.83,0 40.74,22.8 40.74,34.92c0,18.99 -12.78,34.92 -37.97,34.92c-4.29,0 -10.88,-0.29 -16.98,-0.29c-3.53,0 -9.06,0.1 -11.16,0.19l0,-1.43l-0.01,0zm17.56,-2.19c1.72,0.67 5.53,0.86 8.49,0.86c17.17,0 25.67,-10.3 25.67,-32.06c0,-30.82 -17.08,-32.06 -27.1,-32.06c-1.34,0 -5.53,0.29 -7.06,0.86l0,62.4z" id="path12"/>
   <path stroke-width="0" class="cls-1" d="m1200.63,457.5c-1.62,-0.1 -5.73,-0.19 -8.49,-0.19s-6.87,0.1 -8.59,0.19l0,-0.95c3.43,-0.67 3.82,-1.91 3.82,-11.07l0,-45.61c0,-9.16 -0.38,-10.4 -3.82,-11.07l0,-0.95c1.72,0.1 5.72,0.19 8.59,0.19s6.87,-0.1 8.49,-0.19l0,0.95c-3.34,0.67 -3.82,1.91 -3.82,11.07l0,45.61c0,9.16 0.48,10.4 3.82,11.07l0,0.95z" id="path13"/>
   <path stroke-width="0" class="cls-1" d="m1217.7,441.67c0,9.73 4.77,13.26 14.12,13.26c10.5,0 21.66,-3.05 27.19,-31.96l4.2,-21.85c0.57,-2.67 1.05,-5.44 1.05,-7.35c0,-2.96 -0.86,-4.77 -5.72,-5.34l0.1,-0.48c2,0.09 5.06,0.19 8.59,0.19c3.24,0 5.92,-0.1 8.01,-0.19l-0.09,0.48c-5.73,1.43 -7.06,1.72 -9.07,12.59l-2.58,14.03c-4.1,22.04 -7.54,43.13 -34.16,43.13c-14.89,0 -18.7,-8.59 -18.7,-17.18c0,-3.15 0.48,-6.2 1.24,-10.11l6.49,-33.87c0.48,-2.39 0.86,-4.1 0.95,-5.34c0,-2.19 -0.67,-2.96 -3.15,-3.34l0.1,-0.48c1.24,0.1 3.91,0.19 7.44,0.19c4.01,0 8.01,-0.09 10.02,-0.19l-0.1,0.48c-4.96,0.57 -6.2,1.05 -7.82,8.68c-7.73,36.83 -8.11,39.31 -8.11,44.65z" id="path14"/>
   <path stroke-width="0" class="cls-1" d="m1352.13,457.5c-2,-0.1 -6.68,-0.19 -9.92,-0.19c-3.53,0 -7.73,0.1 -9.83,0.19l0,-1.43c2.2,-0.57 3.05,-1.81 3.05,-4.48c0,-1.91 -0.48,-4.68 -1.14,-8.4l-5.53,-31.1l-19.85,45.99l-1.62,0l-21.28,-46.75l-4.87,28.34c-0.48,2.86 -0.76,5.34 -0.76,7.54c0,4.87 1.43,7.92 5.25,8.87l0,1.43c-2.1,-0.1 -5.92,-0.19 -9.45,-0.19c-3.24,0 -4.29,0.1 -6.3,0.19l0,-1.43c4.1,-1.34 5.44,-6.39 7.25,-16.7l9.16,-52.86l2.39,0l24.04,52.48l22.9,-52.48l2.39,0l8.87,56.2c1.05,6.58 2,12.21 5.25,13.36l0,1.43l0,-0.01z" id="path15"/>
   <path stroke-width="0" class="cls-1" d="m1023.18,561.47l-14.88,-38.83l-14.6,38.83l-2.77,0l-22.52,-58.87c-3.24,-8.59 -4.68,-10.97 -6.87,-11.35l0,-1.43c2,0.1 6.87,0.19 10.11,0.19c3.53,0 10.59,-0.1 12.69,-0.19l0,1.43c-2.96,0.57 -4.01,1.81 -4.01,4.01c0,1.34 0.19,3.53 1.72,7.63l14.5,40.26l9.54,-26.24l-5.44,-14.31c-3.24,-8.59 -4.68,-10.97 -6.87,-11.35l0,-1.43c2,0.1 6.87,0.19 10.11,0.19c3.53,0 12.5,-0.1 14.6,-0.19l0,1.43c-4.49,0.76 -6.11,2.1 -6.11,4.58c0,1.72 0.76,4.01 1.91,7.06l14.31,39.79l11.74,-33.49c1.62,-4.67 2.67,-9.35 2.67,-12.5c0,-2.77 -0.95,-4.87 -3.53,-5.44l0,-1.43c2.1,0.1 6.2,0.19 9.73,0.19c3.24,0 5.53,-0.1 7.54,-0.19l0,1.43c-5.34,1.81 -7.44,4.87 -12.88,20.13l-17.94,50.09l-2.77,0l0.02,0z" id="path16"/>
   <path stroke-width="0" class="cls-1" d="m1068.4,521.97l8.68,0c10.4,0 10.3,-0.29 13.17,-6.2l0.48,0c-0.95,3.05 -1.53,4.58 -2.19,7.73c-0.38,1.62 -1.24,5.25 -1.81,8.49l-0.48,0c0,-0.67 0.09,-1.43 0.09,-2c0,-5.06 -1.43,-5.15 -15.07,-5.15l-3.34,0l-6.01,31.58l11.35,0c16.6,0 17.65,-1.14 22.52,-10.69l0.48,0c-1.43,4.2 -2.77,9.45 -3.34,13.74c-10.49,-0.19 -20.89,-0.19 -31.39,-0.19c-7.25,0 -10.3,0.1 -12.31,0.19l0,-0.48c4.96,-0.86 5.53,-2.86 6.68,-8.68l9.83,-51.24c0.38,-2 0.67,-3.24 0.67,-4.39c-0.1,-3.34 -1.24,-3.82 -4.2,-4.29l0,-0.48c1.91,0.09 4.96,0.19 11.83,0.19c14.6,0 26.05,0 30.44,-0.19c-1.24,4.29 -1.53,7.63 -2.77,11.83l-0.48,0c0.1,-0.57 0.1,-1.05 0.1,-1.53c0,-7.25 -3.15,-7.25 -21.37,-7.25l-5.91,0l-5.63,29.01l-0.02,0z" id="path17"/>
   <path stroke-width="0" class="cls-1" d="m1131.17,559.56c-2.1,-0.09 -7.63,-0.19 -11.16,-0.19c-3.53,0 -9.06,0.1 -11.16,0.19l0,-1.43c4.39,-0.76 4.77,-2.77 4.77,-13.45l0,-39.98c0,-10.69 -0.38,-12.69 -4.77,-13.45l0,-1.43c2.1,0.1 7.63,0.19 11.16,0.19c3.53,0 9.06,-0.1 11.16,-0.19l0,1.43c-4.39,0.76 -4.77,2.77 -4.77,13.45l0,39.98c0,10.69 0.38,12.69 4.77,13.45l0,1.43z" id="path18"/>
   <path stroke-width="0" class="cls-1" d="m1172.96,559.56c-2.1,-0.09 -7.63,-0.19 -11.16,-0.19c-3.53,0 -9.06,0.1 -11.16,0.19l0,-1.43c4.39,-0.76 4.77,-2.77 4.77,-13.45l0,-50.28l-1.05,0c-14.22,0 -15.27,3.34 -16.51,10.21l-1.53,0c0.1,-2.29 0.19,-6.2 0.19,-10.21c0,-1.81 -0.1,-3.63 -0.1,-5.25c3.34,1.43 9.16,1.81 25.57,1.81c14.79,0 21.85,-0.38 25.19,-1.81c0,1.62 -0.1,3.43 -0.1,5.25c0,4.01 0.1,7.92 0.19,10.21l-1.53,0c-1.24,-6.87 -2.29,-10.21 -16.51,-10.21l-1.05,0l0,50.28c0,10.69 0.38,12.69 4.77,13.45l0,1.43l0.02,0z" id="path19"/>
   <path stroke-width="0" class="cls-1" d="m1237.84,540.39c-0.1,4.58 -0.29,12.78 -0.29,19.18c-7.16,-0.19 -22.52,-0.19 -33.97,-0.19c-3.53,0 -9.06,0.1 -11.16,0.19l0,-1.43c4.39,-0.76 4.77,-2.77 4.77,-13.45l0,-39.98c0,-10.69 -0.38,-12.69 -4.77,-13.45l0,-1.43c2.1,0.1 7.63,0.19 11.16,0.19c11.45,0 27.19,0 34.35,-0.19c-0.1,2.39 -0.19,6.49 -0.19,10.59c0,2.48 0,4.87 0.1,6.87l-1.43,0c-4.96,-13.84 -9.92,-13.84 -19.94,-13.84c-2.19,0 -5.34,0.19 -6.49,0.38l0,28.05l5.63,0c6.2,0 10.69,-0.67 12.69,-8.2l1.43,0c-0.19,2.86 -0.38,6.11 -0.38,8.87c0,3.82 0.19,7.35 0.38,9.64l-1.43,0c-1.34,-6.58 -6.49,-7.06 -12.69,-7.06l-5.63,0l0,30.44c1.14,0.19 4.29,0.38 6.49,0.38c8.59,0 15.08,-0.67 19.94,-15.55l1.43,0l0,-0.01z" id="path20"/>
   <path stroke-width="0" class="cls-1" d="m1300.14,558.9s-0.86,0.86 -5.82,0.86c-2.29,0 -6.77,-0.19 -10.59,-3.34c-4.29,-3.53 -7.44,-10.69 -16.79,-27.86l-3.15,0l0,16.12c0,10.69 0.38,12.69 4.77,13.45l0,1.43c-2.1,-0.09 -7.63,-0.19 -11.16,-0.19c-3.53,0 -9.06,0.1 -11.16,0.19l0,-1.43c4.39,-0.76 4.77,-2.77 4.77,-13.45l0,-39.98c0,-10.69 -0.38,-12.69 -4.77,-13.45l0,-1.43c2.1,0.1 7.63,0.19 11.26,0.19c5.15,0 9.35,-0.19 12.02,-0.19c16.89,0 25.19,7.73 25.19,19.08c0,8.21 -4.39,13.93 -14.88,17.56c4.2,9.16 15.84,30.15 20.32,31.68l0,0.76l-0.01,0zm-32.06,-32.92c9.26,0 12.79,-4.96 12.79,-16.03c0,-11.64 -3.91,-17.27 -12.4,-17.27c-2.19,0 -3.72,0.38 -4.68,0.86l0,32.44l4.29,0z" id="path21"/>
   <path stroke-width="0" class="cls-1" d="m1304.23,558.13c4.39,-0.76 4.77,-2.77 4.77,-13.45l0,-39.98c0,-10.69 -0.38,-12.69 -4.77,-13.45l0,-1.43c2.1,0.1 7.63,0.19 11.16,0.19c8.97,0 13.07,-0.19 18.32,-0.19c11.74,0 17.08,6.78 17.08,15.08c0,7.54 -4.29,13.74 -14.22,16.22c12.4,1.62 19.56,7.54 19.56,18.22c0,9.35 -4.48,20.32 -23.76,20.32c-4.29,0 -9.64,-0.29 -16.98,-0.29c-3.53,0 -9.06,0.1 -11.16,0.19l0,-1.43zm20.61,-37.88c8.49,0 12.12,-4.2 12.12,-15.36c0,-8.78 -4.2,-12.21 -10.69,-12.21c-1.34,0 -2.96,0.29 -4.49,0.86l0,26.72l3.05,0l0.01,-0.01zm-3.05,3.05l0,32.63c1.72,0.67 4.58,0.86 6.78,0.86c7.06,0 13.74,-4.87 13.74,-17.46c0,-11.35 -6.01,-16.03 -17.18,-16.03l-3.34,0z" id="path22"/>
   <path stroke-width="0" class="cls-1" d="m1381.51,559.56c-2.1,-0.09 -6.49,-0.19 -10.02,-0.19c-3.53,0 -7.92,0.1 -10.02,0.19l0,-1.43c2.86,-0.57 4.1,-1.05 4.1,-8.68l0,-22.9c0,-5.82 -0.09,-7.82 -2.96,-8.59l0,-1.43c5.44,0 10.69,-1.05 14.79,-2.96l0,35.87c0,7.63 1.24,8.11 4.1,8.68l0,1.43l0.01,0.01zm-10.02,-49.61c-3.24,0 -5.82,-2.58 -5.82,-5.82c0,-3.63 2.58,-6.2 5.82,-6.2c3.63,0 6.2,2.58 6.2,6.2c0,3.24 -2.58,5.82 -6.2,5.82z" id="path23"/>
   <path stroke-width="0" class="cls-1" d="m1432.27,542.1c-0.1,3.24 -0.38,11.35 -0.38,17.46c-7.16,-0.19 -21.66,-0.19 -33.11,-0.19c-3.53,0 -9.06,0.1 -11.16,0.19l0,-1.43c4.39,-0.76 4.77,-2.77 4.77,-13.45l0,-39.98c0,-10.69 -0.38,-12.69 -4.77,-13.45l0,-1.43c2.1,0.1 7.63,0.19 11.16,0.19c3.53,0 9.06,-0.1 11.16,-0.19l0,1.43c-4.39,0.76 -4.77,2.77 -4.77,13.45l0,50.85c3.05,0.29 8.4,0.38 11.07,0.38c6.49,0 12.02,-0.67 14.6,-13.84l1.43,0l0,0.01z" id="path24"/>
   <path stroke-width="0" class="cls-1" d="m1473.96,555.75c-1.43,2.39 -3.63,4.39 -6.78,4.39c-2.67,0 -4.58,-1.43 -5.53,-4.77c-2.58,3.72 -5.53,4.77 -9.06,4.77c-10.88,0 -17.27,-9.83 -17.27,-22.61c0,-13.74 7.44,-23.95 18.22,-23.95c3.24,0 5.53,0.95 7.44,2.86l0,-19.37c0,-4.68 -0.1,-6.2 -2.48,-6.87l0,-0.95c4.01,-0.1 8.11,-0.86 11.16,-2.58l0,58.49c0,8.49 0.09,10.69 1.91,10.69c0.67,0 1.14,-0.29 1.81,-0.95l0.57,0.86l0.01,-0.01zm-12.98,-34.54c-0.95,-3.15 -3.34,-5.15 -6.68,-5.15c-5.72,0 -9.16,5.82 -9.16,19.75s3.53,20.89 9.83,20.89c2.2,0 4.58,-0.76 6.01,-3.72l0,-31.77z" id="path25"/>
   <path stroke-width="0" class="cls-1" d="m1529.2,514.15c0,-19.66 -1.62,-21.37 -7.16,-22.9l0,-1.43c2.1,0.1 5.34,0.19 8.87,0.19c3.24,0 5.53,-0.1 7.54,-0.19l0,1.43c-5.15,1.53 -5.25,3.34 -5.25,22.99l0,19.08c0,15.17 -4.39,27 -21.66,27c-10.4,0 -19.18,-2.29 -23.76,-8.11c-3.34,-4.29 -4.77,-9.64 -4.77,-18.8l0,-28.72c0,-10.69 -0.38,-12.69 -4.77,-13.45l0,-1.43c2.1,0.1 7.63,0.19 11.16,0.19c3.53,0 9.07,-0.1 11.16,-0.19l0,1.43c-4.39,0.76 -4.77,2.77 -4.77,13.45l0,28.34c0,17.56 2.48,23.66 16.12,23.66c12.59,0 17.27,-7.63 17.27,-24.9l0,-17.65l0.02,0.01z" id="path26"/>
   <path stroke-width="0" class="cls-1" d="m1600.28,561.47c-13.36,-14.79 -32.06,-34.92 -47.99,-50.38l0,19.37c0,20.99 1.62,26.14 7.16,27.67l0,1.43c-2.1,-0.09 -5.34,-0.19 -8.87,-0.19c-3.24,0 -5.53,0.1 -7.54,0.19l0,-1.43c5.15,-1.53 5.25,-6.77 5.25,-27.76c0,-24.81 0,-32.54 -0.38,-41.79l1.62,0c14.5,16.12 32.82,35.59 47.42,50.38l0,-20.04c0,-21.56 -1.62,-26.14 -7.16,-27.67l0,-1.43c2.1,0.1 5.34,0.19 8.87,0.19c3.24,0 5.53,-0.1 7.54,-0.19l0,1.43c-5.15,1.53 -5.25,6.2 -5.25,27.76l0,22.99c0,6.39 0.1,12.88 0.57,19.47l-1.24,0z" id="path27"/>
   <path stroke-width="0" class="cls-1" d="m1678.6,553.46c-0.57,-0.38 -1.34,-0.38 -2,-0.38c-6.11,0 -10.59,7.25 -26.14,7.25c-23.76,0 -37.78,-16.79 -37.78,-35.68c0,-17.56 12.21,-35.11 38.74,-35.11c11.35,0 18.03,3.24 25.66,3.24c-0.19,2.67 -0.29,6.2 -0.29,9.92c0,3.72 0.1,6.39 0.19,8.97l-1.43,0c-5.34,-15.17 -14.88,-19.08 -23.66,-19.08c-15.17,0 -25.19,11.74 -25.19,32.82s10.4,31.87 24.52,31.87c5.92,0 11.07,-1.81 14.41,-5.44l0,-11.35c0,-10.69 -0.38,-12.69 -4.77,-13.45l0,-1.43c2.1,0.09 7.63,0.19 11.16,0.19c3.53,0 9.06,-0.1 11.16,-0.19l0,1.43c-4.39,0.76 -4.77,3.34 -4.77,14.03c0,6.49 0,10.02 0.48,12.02l-0.29,0.38l0,-0.01z" id="path28"/>
  </g>
 </g>
</svg>